<?xml version="1.0" encoding="utf-8"?>
<!-- Generator: Adobe Illustrator 19.1.0, SVG Export Plug-In . SVG Version: 6.00 Build 0)  -->
<svg version="1.1" id="Layer_1" xmlns="http://www.w3.org/2000/svg" xmlns:xlink="http://www.w3.org/1999/xlink" x="0px" y="0px"
	 viewBox="0 0 960 560" enable-background="new 0 0 960 560" xml:space="preserve">
<g>
	<path fill="#2C4BA3" d="M515.5,6.7c1.4,0.4,2.8,1.1,4.2,1.3c8.3,0.9,12.1,6.9,15.3,13.3c3.3,6.8,6.2,13.8,9.2,20.7
		c2.9,6.7,5.7,13.4,8.7,20.1c2.8,6.3,5.9,12.5,8.7,18.8c4.3,9.6,8.3,19.2,12.6,28.7c4.6,10.1,9.3,20.1,14,30.2
		c2.2,4.7,4.3,9.4,6.3,14.2c1.1,2.6,2.8,3.8,5.9,3.8c20.5-0.1,41-0.1,61.5-0.1c4.4,0,4.9-0.7,6.8-4.8c2.2-4.9,5-9.5,7.5-14.2
		c1.5-2.8,3.1-5.5,4.6-8.3c1.3-2.3,2.6-4.5,3.9-6.8c1.1-2,2.2-1.6,3,0.2c1.6,3.2,3.1,6.4,4.6,9.6c2.9,5.9,5.7,11.7,8.6,17.6
		c2.4,5,4.7,10.2,7.3,15.2c2.1,4-0.2,7-1.8,10.1c-4.4,8.4-8.9,16.8-13.4,25.2c-2.7,5.1-5.6,10.1-8.4,15.2
		c-2.8,5.3-5.4,10.6-8.1,15.9c-3.4,6.6-6.9,13.1-10.4,19.6c-0.4,0.7-1.7,1.4-2.6,1.4c-22.7,0.1-45.4,0.1-68.1,0
		c-1.2,0-2.9-1.3-3.5-2.4c-3.4-6.8-6.4-13.8-9.6-20.7c-1.9-4.1-4-8.1-5.9-12.2c-2.6-5.9-5.1-11.8-7.7-17.7
		c-2.9-6.4-5.9-12.8-8.8-19.2c-2.2-4.9-4.1-9.8-6.3-14.7c-1.9-4.1-3.9-8.2-5.9-12.3c-3.2-6.9-6.5-13.8-9.6-20.7
		c-4.1-9.1-8-18.3-12.1-27.4c-2.7-6-5.6-12-8.4-18c-2.7-5.7-5.5-11.3-8.1-17.1c-3.9-8.6-7.5-17.2-11.3-25.8c-1.6-3.6-3.6-7-4.7-10.7
		c-2.3-7.4-1.2-14.3,4-20.4c3.6-4.2,8.2-5.6,13.2-6.7c0.4-0.1,0.8-0.4,1.2-0.6C512.9,6.7,514.2,6.7,515.5,6.7z"/>
	<path fill="#2C4BA3" d="M167.7,262.2c7.6,0,15.2,0,22.8,0c6.2-0.1,12.4-0.1,18.6-0.4c3.1-0.1,4.8,1.4,5.9,3.9
		c4.4,9.4,8.8,18.9,13.1,28.3c3.2,6.9,6.1,14,9.3,20.9c3.4,7.3,7.1,14.5,10.5,21.8c2.3,4.9,4.4,9.9,6.8,14.8
		c3.3,6.9,6.7,13.7,9.9,20.6c2.6,5.5,4.8,11.2,7.3,16.7c3.8,8.1,7.8,16.1,11.6,24.2c3.2,6.8,6.1,13.7,9.2,20.5c2.8,6,5.7,12,8.4,18
		c4.5,9.8,9,19.7,13.5,29.6c3,6.6,6.2,13.1,9.1,19.8c3.2,7.4,6.8,14.8,9.2,22.5c2.4,7.6-1.2,14-6.5,19.5c-4,4.2-9.2,6.1-14.7,6.2
		c-6.7,0.2-13-2.1-17-7.7c-2.9-4.1-5-8.8-7.2-13.3c-2.9-6-5.5-12.1-8.2-18.2c-4-8.9-7.8-17.8-11.9-26.6c-4.1-9-8.3-17.9-12.4-26.8
		c-2.3-5.1-4.4-10.3-6.7-15.3c-1.5-3.3-2.6-7.1-6.6-8.6c-0.9-0.3-1.8-0.7-2.8-0.7c-40.2,0-80.4,0-120.6,0c-4.2,0-8.4,0-12.6-0.1
		c-3-0.1-4.9,1.5-6.3,4c-2.9,5.5-5.9,11.1-8.8,16.6c-4.9,9.5-9.9,19-14.8,28.6c-3.9,7.7-7.8,15.4-11.8,23.1
		c-5.1,9.9-10.4,19.7-15.4,29.7c-2.6,5.3-6.3,9.6-11.6,11.9c-5.3,2.3-11,2.8-16.7,0.4c-4.8-2-8.8-4.8-11.6-9.3
		c-3.2-5.1-4.3-10.5-2.9-16.6c1.1-4.8,3.7-8.7,5.9-12.8c3.4-6.2,6.5-12.6,9.8-18.8c4.5-8.5,9.2-17,13.6-25.6
		c4.7-9,9.2-18.2,13.9-27.3c2.9-5.6,5.9-11.1,8.8-16.6c2.9-5.4,5.8-10.9,8.6-16.3c4.5-8.5,9.1-16.9,13.5-25.4
		c3.5-6.7,6.8-13.6,10.3-20.3c2.9-5.7,6-11.3,8.9-17c4-7.6,7.9-15.3,11.9-22.9c5.7-11,11.4-22.1,17.2-33.1
		c3.3-6.4,6.8-12.8,10.1-19.2c0.9-1.8,2.2-2.6,4.3-2.6C151.4,262.3,159.6,262.2,167.7,262.2z M175,389.8
		C175,389.8,175,389.9,175,389.8c13.4,0.1,26.7,0.1,40.1,0c1.9,0,3.8-0.4,5.7-0.5c1.8-0.2,2.4-1.1,1.9-2.8c-0.3-1.1-0.4-2.4-0.9-3.4
		c-2.4-5-5-9.8-7.2-14.8c-4.6-10.3-9-20.7-13.7-30.9c-4-8.8-8.3-17.5-12.5-26.1c-0.5-1-1.5-1.9-2.4-2.4c-4.9-2.4-10.2-1.6-15.4-1.4
		c-3,0.1-5.2,1.7-6.5,4.7c-1.1,2.7-2.6,5.2-4,7.8c-4,7.6-8.1,15.1-12.1,22.7c-5,9.5-9.8,19.2-14.6,28.8c-2.1,4.2-4.5,8.4-6.3,12.7
		c-1.7,4.1-1.3,4.5,2.9,5.4c1.1,0.2,2.2,0.3,3.2,0.3C147.2,389.8,161.1,389.8,175,389.8z"/>
	<path fill="#2C4BA3" d="M796.3,265.8c11.3,0,22.5-0.1,33.8,0.1c1.3,0,3.3,1.1,3.8,2.2c3.2,6.1,6,12.4,8.9,18.7
		c3.8,8.1,7.8,16.2,11.6,24.3c2,4.3,3.7,8.6,5.7,12.9c2.2,4.9,4.6,9.7,6.9,14.5c3.4,7.3,6.9,14.6,10.3,21.9
		c7.8,16.8,15.6,33.6,23.4,50.4c5.4,11.5,11,22.8,16.4,34.3c2.7,5.7,5.1,11.4,7.8,17.1c3.1,6.5,6.2,13,9.4,19.4
		c3.6,7.4,7.4,14.8,10.9,22.3c3.1,6.5,6.2,12.9,8.7,19.6c2.4,6.4,1.1,12.5-3,18.2c-3.6,5.1-8.4,8-14.3,9.1
		c-9,1.8-19.3-1.6-23.8-11.2c-4.6-9.8-9.2-19.6-13.8-29.4c-4.8-10.5-9.5-21-14.3-31.5c-5-10.9-10.2-21.7-15.3-32.6
		c-4.7-9.9-9.5-19.8-14.1-29.8c-5.8-12.7-11.4-25.5-17.1-38.2c-2-4.5-4.4-8.8-6.5-13.2c-3.4-7.4-6.7-14.9-10.1-22.2
		c-4.6-9.9-9.3-19.7-13.9-29.6c-0.9-1.9-2.1-2.8-4.2-2.8c-5.1,0-10.2-0.1-15.3-0.2c-2.2,0-3.6,1.3-4.5,3
		c-3.6,6.6-7.1,13.2-10.7,19.8c-3.1,5.7-6.4,11.4-9.4,17.2c-3.4,6.4-6.5,13-9.8,19.4c-5.8,11.5-11.7,22.9-17.6,34.3
		c-7.3,14.1-14.6,28.2-22,42.2c-5.6,10.6-11.3,21.2-17,31.8c-6.5,12.3-13.1,24.5-19.5,36.8c-4.2,8.1-8.2,16.3-12.5,24.4
		c-4.1,7.8-11,10.7-19.4,10.6c-12.6-0.1-23.7-12.4-21.1-25.7c1.1-5.8,4.5-10.4,7.1-15.4c2.9-5.7,5.9-11.4,8.9-17.1
		c2.3-4.4,4.7-8.8,7-13.2c2.3-4.3,4.6-8.6,6.9-12.9c3.2-6.1,6.5-12.2,9.7-18.4c4.5-8.8,8.9-17.6,13.5-26.4c3-5.8,6.3-11.4,9.3-17.1
		c6.2-11.9,12.3-23.8,18.6-35.7c6.7-12.8,13.5-25.5,20.2-38.3c6-11.5,12-23.1,18-34.6c4.5-8.6,9-17.1,13.5-25.7
		c1.2-2.4,2.9-3.4,5.6-3.3c11.1,0.1,22.2,0.1,33.2,0.1C796.3,265.7,796.3,265.8,796.3,265.8z"/>
	<path fill="#2C4BA3" d="M795.5,253.5c-11.5,0-23.1,0-34.6,0c-2,0-3.1-0.3-4.1-2.5c-4.9-11.2-10.1-22.3-15.3-33.4
		c-4.5-9.6-9.2-19.1-13.7-28.7c-4.3-9.1-8.3-18.3-12.5-27.4c-4.5-9.6-9.3-19.1-13.8-28.7c-3.9-8.3-7.5-16.7-11.3-25
		c-5.1-10.9-10.4-21.7-15.5-32.6c-3-6.5-5.8-13.2-8.8-19.8c-1.9-4.3-4.2-8.4-6-12.8c-2.2-5.6-3.9-11.5-2.5-17.5
		c2-8.9,9.7-17.8,21-16.2c8.4,1.2,14.4,5.9,18.2,12.6c5.4,9.4,9.5,19.5,14.2,29.3c5.5,11.5,11.1,23.1,16.6,34.6
		c3.7,7.8,7.4,15.6,11,23.5c5.4,11.8,10.8,23.6,16.3,35.3c1.9,4.1,3.7,8.3,6.1,12.2c0.8,1.2,3.2,1.8,4.9,1.9
		c10.1,0.2,20.1,0,30.2,0.1c11.1,0.1,22.3,0.4,33.4,0.4c1.4,0,3.4-1.2,4-2.5c6.1-11.6,12.1-23.4,18-35.1c3-5.8,5.7-11.7,8.8-17.4
		c5.1-9.4,10.4-18.7,15.4-28.2c3-5.6,5.6-11.4,8.5-17c6.1-11.9,12.8-23.6,18.4-35.7c6.4-13.7,24.5-16,34.5-7.9
		c4.6,3.7,7,9.6,7.3,15.9c0.3,4.9-1,9.5-3.4,13.9c-4.6,8.5-8.8,17.1-13.2,25.6c-3.1,5.9-6.4,11.6-9.5,17.5
		c-3.8,7.1-7.4,14.3-11.1,21.5c-3.9,7.4-7.8,14.7-11.6,22.2c-3.7,7.1-7.1,14.3-10.8,21.4c-4.9,9.5-9.9,19-14.8,28.5
		c-2.4,4.6-4.5,9.3-6.8,13.9c-2.3,4.5-4.6,9-6.9,13.5c-2,3.9-4,7.7-6,11.5c-2.1,4.2-4.2,8.4-6.4,12.6c-2.3,4.6-4.6,9.3-7,13.9
		c-0.9,1.7-1.6,3.5-2.9,4.9c-0.8,0.9-2.4,1.7-3.6,1.7C818.8,253.5,807.2,253.5,795.5,253.5z"/>
	<path fill="#2C4BA3" d="M348,264.6c1.4,0,2.4,0,3.4,0c58.2,0,116.3,0,174.5,0c16.2,0,28.6,17.3,20.4,33
		c-3.5,6.7-9.2,10.8-17.3,10.8c-42.4,0-84.8,0-127.2,0c-2.4,0-4.7,0.1-7.1,0.3c-2.1,0.1-4,2.2-4.1,4.3c0,24.5,0,48.9,0,73.4
		c0,2.3,2.7,4.1,6.1,4.1c8.6,0,17.2,0,25.8,0c13.9,0.1,27.8,0,41.7,0.3c8.2,0.1,14.4,3.6,18.8,10.9c4.2,7.1,4.8,14.2,1,21.4
		c-3.7,7.1-9.5,10.9-17.8,10.8c-19.7-0.2-39.4-0.1-59.1-0.1c-3.9,0-7.9-0.1-11.8,0.2c-3.8,0.3-4.7,1.4-4.7,5.3
		c0,29.6-0.1,59.1,0.1,88.7c0.1,11.6-9.8,20.8-20.7,21.1c-10.5,0.3-18.1-6.3-21.7-14.8c-0.3-0.6-0.3-1.4-0.3-2.1
		c0-64.4,0-128.8,0-193.2c0-23.7,0-47.4,0-71.1C348,267,348,266,348,264.6z"/>
	<path fill="#2C4BA3" d="M623.6,266c11.7,0,23.4,0.4,35.1-0.2c5.2-0.2,7.6,1.5,9.5,6.1c2.9,7.1,6.6,13.9,9.9,21
		c3.2,6.9,6,13.9,9.1,20.8c3.4,7.4,7,14.7,10.5,22.1c2,4.3,3.8,8.8,6,13c1.5,3,0.5,5.2-1,7.8c-3.5,5.9-6.7,12-10.1,18
		c-1.6,2.8-3.2,5.4-4.8,8.2c-2.2,3.9-4.3,7.8-6.5,11.6c-0.4,0.6-1,1.1-1.6,1.6c-0.5-0.6-1.2-1.1-1.6-1.7c-2.9-6.1-5.8-12.2-8.6-18.3
		c-3.7-7.9-7.3-15.8-10.9-23.7c-3.6-8-7.1-16-10.7-23.9c-2.4-5.3-4.8-10.6-7.5-15.8c-0.5-1-2-1.9-3.1-2c-4.9-0.3-9.8-0.3-14.8-0.4
		c-3.7-0.1-5.4,2.3-6.9,5.2c-3.5,6.6-7.1,13.1-10.6,19.7c-3.6,6.8-7.1,13.6-10.6,20.4c-3.4,6.5-7,13-10.4,19.6
		c-6,11.5-11.9,23.1-17.9,34.6c-4.8,9.3-9.8,18.5-14.6,27.7c-4.8,9.2-9.6,18.3-14.4,27.5c-4.1,7.9-8.2,15.7-12.3,23.6
		c-4.7,9-9.4,18-14.1,27c-2.9,5.6-5.6,11.2-8.5,16.7c-1.8,3.5-3.5,7.1-5.7,10.3c-2.7,3.9-7,5.7-11.5,6.6
		c-12.3,2.5-23.4-5.1-26.3-16.8c-1.4-5.5-0.3-10.9,2.3-15.8c3.8-7.1,7.8-14.2,11.7-21.3c1.2-2.2,2.2-4.4,3.4-6.5
		c3-5.6,6-11.1,8.9-16.7c3.3-6.4,6.6-12.8,9.9-19.3c3.7-7.3,7.3-14.7,11.2-22c4.2-8.1,8.6-16,12.9-24.1c3.5-6.7,6.9-13.4,10.5-20.1
		c5-9.5,10-18.9,15-28.3c2.5-4.8,4.9-9.7,7.4-14.5c2.1-3.9,4.3-7.8,6.3-11.7c5-9.6,9.8-19.2,14.8-28.8c3.5-6.7,7.3-13.3,10.8-19.9
		c2.6-4.9,5.1-9.8,7.5-14.8c1-2.1,2.2-3.2,4.7-3.2c9.2,0.1,18.3,0.1,27.5,0.1C623.6,265.8,623.6,265.9,623.6,266z"/>
	<path fill="#2C4BA3" d="M737.1,421.9c1.9,3.7,3.6,6.8,5.2,10c3,6.2,5.9,12.5,8.8,18.7c2.7,5.9,5.2,11.8,7.9,17.7
		c4.6,9.9,9.3,19.7,13.9,29.6c4.1,8.8,8.3,17.5,12,26.5c3.1,7.4,1.3,14-4.1,19.8c-8.4,9-20.4,9.7-30,3.4c-4.3-2.8-6.2-7.4-8.1-11.9
		c-4.4-10.3-8.9-20.6-13.5-30.8c-5-11-10.1-21.9-15.3-32.8c-1.9-3.9-0.6-7.3,1.2-10.6c2.2-4.2,4.5-8.3,6.8-12.4
		c4.7-8.6,9.4-17.2,14.1-25.8C735.9,423.1,736.2,422.9,737.1,421.9z"/>
	<path fill="#2C4BA3" d="M797.4,83.7c17.1,0.3,31.9,14.1,32.2,31.3c0.4,18.8-13.8,34.4-32.6,33.9c-16.5-0.5-31.7-14.7-31.8-32.7
		C765.2,98.5,778.4,83.7,797.4,83.7z"/>
	<path fill="#2C4BA3" d="M630,147.5c-16.9,0.3-31.4-11.9-33.6-28.1c-2.8-20.3,11.8-34.3,27.1-36.8c9.3-1.5,17.2,2.3,24.4,7.5
		c8.3,6,11.2,15,11.9,24.6C660.8,128.9,648,146.6,630,147.5z"/>
	<path fill="#2C4BA3" d="M779.2,30.1c-0.2,8.1-2.3,13.8-5.3,19.2c-3.2,5.9-6.4,11.8-9.6,17.7c-4.3,8.1-8.5,16.2-12.7,24.3
		c-1.5,2.9-3.1,5.8-4.8,8.5c-0.6,0.9-1.7,2.1-2.5,2c-0.9,0-2-1.2-2.5-2.2c-3.5-7.6-7-15.2-10.4-22.8c-2.9-6.5-5.5-13.2-8.6-19.7
		c-1.3-2.8-0.5-5.1,0.7-7.4c2.7-5.5,5.5-11,8.4-16.5c2.4-4.6,4.8-9.4,7.6-13.7c4.9-7.3,14.9-11.1,23.7-8.3
		c5.8,1.9,10.7,4.3,13.2,9.9C778,24.6,778.7,28.3,779.2,30.1z"/>
</g>
</svg>
